# xmcd
#
# Track frame offsets: 
#        150
#        17863
#        38691
#        54082
#        69423
#        88626
#        105546
#        123262
#        141981
#        157329
#        177523
#        193609
#        208895
#        224558
#        245023
#        263970
#        279993
#        292825
#        306596
#
# Disc length: 4292 seconds
#
# Revision: 0
# Processed by: cddbd v1.5.2PL0 Copyright (c) Steve Scherf et al.
# Submitted via: ExactAudioCopy v0.95b4
#
DISCID=2610c213
DTITLE=Various Artist - Siempre Te Amare Vol.11
DYEAR=2000
DGENRE=Ballad
TTITLE0=Miguel Gallardo - Desnúdate
TTITLE1=Juan Bau - Penas
TTITLE2=Los Angeles Negros - Murió la flor
TTITLE3=Nino Bravo - Puerta de amor
TTITLE4=Manolo Otero - Que he de hacer para olvidarte
TTITLE5=Danny Daniel - Que pena me da
TTITLE6=Wilkins - No se puede morir por dentro
TTITLE7=José Feliciano - Porque te tengo que olvidar
TTITLE8=Los Pasteles Verdes - Esclavo y amo
TTITLE9=Nelson Ned - Dile a tu nuevo amor
TTITLE10=Alejandro Jaén - Dame fe
TTITLE11=José Vélez - Solamente tu
TTITLE12=José Augusto - Mi primer amor
TTITLE13=Armando Massé - Buenos tiempos
TTITLE14=Domenico Modugno - La distancia es como el viento
TTITLE15=Lolita - No renunciaré
TTITLE16=Nicola Di Bari - Lisa de los ojos azules
TTITLE17=Adamo - Ella
TTITLE18=Basilio - Quién
EXTD=
EXTT0=
EXTT1=
EXTT2=
EXTT3=
EXTT4=
EXTT5=
EXTT6=
EXTT7=
EXTT8=
EXTT9=
EXTT10=
EXTT11=
EXTT12=
EXTT13=
EXTT14=
EXTT15=
EXTT16=
EXTT17=
EXTT18=
PLAYORDER=
